<svg width="24.000000" height="24.000000" viewBox="0 0 24 24" fill="none" xmlns="http://www.w3.org/2000/svg" xmlns:xlink="http://www.w3.org/1999/xlink">
	<desc>
			Created with Pixso.
	</desc>
	<defs>
		<clipPath id="clip2_1564">
			<rect width="24.000000" height="24.000000" fill="white" fill-opacity="0"/>
		</clipPath>
	</defs>
	<rect width="24.000000" height="24.000000" fill="#FFFFFF" fill-opacity="0"/>
	<g clip-path="url(#clip2_1564)">
		<path d="M21 12C21.5523 12 22.0053 11.5513 21.9506 11.0017C21.4807 6.28296 17.717 2.51929 12.9984 2.04956C12.4488 1.99463 12 2.44775 12 3C12 3.55225 12.4494 3.99341 12.9974 4.06177C16.6127 4.51343 19.4865 7.38721 19.9381 11.0024C20.0066 11.5505 20.4477 12 21 12ZM14 22L19 22C20.103 22 21 21.103 21 20L21 16C21 14.897 20.103 14 19 14L15 14C14.3168 14 13.713 14.344 13.3519 14.8679C13.012 15.3613 12.4757 15.8457 11.9118 15.6436C10.2619 15.0518 8.98108 13.7642 8.37778 12.0901C8.17413 11.5251 8.65598 10.9829 9.14734 10.6375C9.66257 10.2751 10 9.67627 10 9L10 5C10 3.89697 9.103 3 8 3L4 3C2.897 3 2 3.89697 2 5L2 10C2 16.6169 7.383 22 14 22ZM4 10L4 6C4 5.44775 4.44772 5 5 5L7 5C7.55228 5 8 5.44775 8 6L8 8C8 8.55225 7.55228 9 7 9C6.73199 9 6.47501 9.10693 6.28699 9.2981C6.099 9.48999 5.996 9.74805 6 10.0161C6.07199 14.5669 9.51199 18 14 18C14.552 18 15 17.552 15 17C15 16.4478 15.4477 16 16 16L18.0002 16C18.5524 16 19.0002 16.4475 19.0002 16.9998L19.0008 18.9998C19.0008 19.5522 18.5531 20 18.0008 20L14 20C8.48599 20 4 15.5139 4 10ZM17.2424 12L17.3636 12C17.9159 12 18.3719 11.5496 18.2858 11.0042C17.8578 8.29053 15.7094 6.14233 12.9959 5.71411C12.4504 5.62817 12 6.08398 12 6.63647L12 6.75757C12 7.30981 12.4538 7.74536 12.9908 7.87427C14.536 8.24536 15.7547 9.46387 16.1257 11.0093C16.2546 11.5461 16.6901 12 17.2424 12ZM12.8716 10.4043C12.4313 10.1631 12 10.5889 12 11.0908C12 11.593 12.407 12 12.9091 12C13.4112 12 13.837 11.5686 13.5958 11.1284C13.4287 10.8232 13.1767 10.5713 12.8716 10.4043Z" fill="#505050" fill-opacity="1.000000" fill-rule="evenodd"/>
	</g>
</svg>
